<svg xmlns="http://www.w3.org/2000/svg" xmlns:svg="http://www.w3.org/2000/svg" xmlns:xlink="http://www.w3.org/1999/xlink" id="svg5624" width="96" height="96" version="1.0"><defs id="defs5626"><linearGradient id="linearGradient6391"><stop id="stop6393" offset="0" style="stop-color:#e6ce00;stop-opacity:1"/><stop id="stop6395" offset="1" style="stop-color:#c4a000;stop-opacity:1"/></linearGradient><linearGradient id="linearGradient6381"><stop style="stop-color:#fff;stop-opacity:1" id="stop6383" offset="0"/><stop style="stop-color:#fff;stop-opacity:0" id="stop6385" offset="1"/></linearGradient><linearGradient id="linearGradient6359"><stop style="stop-color:#fff;stop-opacity:1" id="stop6361" offset="0"/><stop style="stop-color:#fff;stop-opacity:0" id="stop6363" offset="1"/></linearGradient><linearGradient id="linearGradient6333"><stop id="stop6335" offset="0" style="stop-color:#d3bf1a;stop-opacity:1"/><stop id="stop6337" offset="1" style="stop-color:#e3cb00;stop-opacity:0"/></linearGradient><linearGradient id="linearGradient6327"><stop id="stop6329" offset="0" style="stop-color:#c4a000;stop-opacity:1"/><stop id="stop6331" offset="1" style="stop-color:#e3cb00;stop-opacity:0"/></linearGradient><linearGradient id="linearGradient6277"><stop style="stop-color:#fdee77;stop-opacity:1" id="stop6279" offset="0"/><stop style="stop-color:#fce94f;stop-opacity:1" id="stop6281" offset="1"/></linearGradient><linearGradient id="linearGradient5499"><stop style="stop-color:#ddc600;stop-opacity:1" id="stop5501" offset="0"/><stop style="stop-color:#edd400;stop-opacity:1" id="stop5503" offset="1"/></linearGradient><linearGradient id="linearGradient5505" x1="54.125" x2="58.25" y1="110.125" y2="96.5" gradientUnits="userSpaceOnUse" xlink:href="#linearGradient5499"/><linearGradient id="linearGradient6283" x1="61.904" x2="62.72" y1="83.321" y2="86.597" gradientTransform="translate(-148.00001,-71.647774)" gradientUnits="userSpaceOnUse" xlink:href="#linearGradient6277"/><linearGradient id="linearGradient6313" x1="59.214" x2="61.56" y1="94.75" y2="100.889" gradientUnits="userSpaceOnUse" xlink:href="#linearGradient6327"/><linearGradient id="linearGradient6317" x1="57.474" x2="62.846" y1="101.717" y2="95.809" gradientUnits="userSpaceOnUse" xlink:href="#linearGradient6333"/><linearGradient id="linearGradient6347" x1="59.411" x2="61.063" y1="92.621" y2="98.453" gradientUnits="userSpaceOnUse" xlink:href="#linearGradient6327"/><linearGradient id="linearGradient6351" x1="59.214" x2="61.063" y1="94.75" y2="99.767" gradientUnits="userSpaceOnUse" xlink:href="#linearGradient6327"/><linearGradient id="linearGradient6355" x1="58.089" x2="61.063" y1="91.907" y2="99.767" gradientUnits="userSpaceOnUse" xlink:href="#linearGradient6327"/><linearGradient id="linearGradient6365" x1="60.219" x2="62.156" y1="82.688" y2="89.225" gradientUnits="userSpaceOnUse" xlink:href="#linearGradient6359"/><linearGradient id="linearGradient6369" x1="59.214" x2="61.063" y1="94.75" y2="99.767" gradientUnits="userSpaceOnUse" xlink:href="#linearGradient6327"/><linearGradient id="linearGradient6373" x1="59.214" x2="61.063" y1="94.75" y2="100.847" gradientUnits="userSpaceOnUse" xlink:href="#linearGradient6327"/><linearGradient id="linearGradient6387" x1="59.574" x2="65.761" y1="82.664" y2="104.673" gradientUnits="userSpaceOnUse" xlink:href="#linearGradient6381"/><linearGradient id="linearGradient6389" x1="68.059" x2="69.363" y1="80.101" y2="94.811" gradientTransform="translate(-148.00001,-71.647774)" gradientUnits="userSpaceOnUse" xlink:href="#linearGradient6391"/><linearGradient id="linearGradient6398" x1="57.474" x2="62.846" y1="101.717" y2="95.809" gradientUnits="userSpaceOnUse" xlink:href="#linearGradient6333"/><linearGradient id="linearGradient6400" x1="59.574" x2="61.636" y1="82.664" y2="107.423" gradientTransform="translate(-148.00001,-71.647774)" gradientUnits="userSpaceOnUse" xlink:href="#linearGradient6381"/><filter id="filter6476" width="1.395" height="2.595" x="-.197" y="-.797"><feGaussianBlur id="feGaussianBlur6478" stdDeviation="3.863"/></filter><linearGradient id="linearGradient6480" x1="58.125" x2="58.25" y1="109.063" y2="96.5" gradientTransform="translate(-148.00001,-71.647774)" gradientUnits="userSpaceOnUse" xlink:href="#linearGradient5499"/><linearGradient id="linearGradient6484" x1="57.474" x2="62.846" y1="101.717" y2="95.809" gradientUnits="userSpaceOnUse" xlink:href="#linearGradient6333"/><linearGradient id="linearGradient6488" x1="57.474" x2="62.846" y1="101.717" y2="95.809" gradientUnits="userSpaceOnUse" xlink:href="#linearGradient6333"/><linearGradient id="linearGradient6491" x1="57.474" x2="62.846" y1="101.717" y2="95.809" gradientUnits="userSpaceOnUse" xlink:href="#linearGradient6333"/><linearGradient id="linearGradient6493" x1="57.474" x2="62.846" y1="101.717" y2="95.809" gradientUnits="userSpaceOnUse" xlink:href="#linearGradient6333"/><linearGradient id="linearGradient6523" x1="58.125" x2="58.25" y1="109.063" y2="96.5" gradientTransform="translate(-48.000005,-181.64777)" gradientUnits="userSpaceOnUse" xlink:href="#linearGradient5499"/><linearGradient id="linearGradient6525" x1="68.059" x2="69.363" y1="80.101" y2="94.811" gradientTransform="translate(-48.000005,-181.64777)" gradientUnits="userSpaceOnUse" xlink:href="#linearGradient6391"/><linearGradient id="linearGradient6527" x1="61.904" x2="62.72" y1="83.321" y2="86.597" gradientTransform="translate(-48.000005,-181.64777)" gradientUnits="userSpaceOnUse" xlink:href="#linearGradient6277"/><linearGradient id="linearGradient6529" x1="59.214" x2="61.56" y1="94.75" y2="100.889" gradientUnits="userSpaceOnUse" xlink:href="#linearGradient6327"/><linearGradient id="linearGradient6531" x1="57.474" x2="62.846" y1="101.717" y2="95.809" gradientUnits="userSpaceOnUse" xlink:href="#linearGradient6333"/><linearGradient id="linearGradient6533" x1="57.474" x2="62.846" y1="101.717" y2="95.809" gradientUnits="userSpaceOnUse" xlink:href="#linearGradient6333"/><linearGradient id="linearGradient6535" x1="57.474" x2="62.846" y1="101.717" y2="95.809" gradientUnits="userSpaceOnUse" xlink:href="#linearGradient6333"/><linearGradient id="linearGradient6537" x1="59.411" x2="61.063" y1="92.621" y2="98.453" gradientUnits="userSpaceOnUse" xlink:href="#linearGradient6327"/><linearGradient id="linearGradient6539" x1="59.214" x2="61.063" y1="94.75" y2="99.767" gradientUnits="userSpaceOnUse" xlink:href="#linearGradient6327"/><linearGradient id="linearGradient6541" x1="58.089" x2="61.063" y1="91.907" y2="99.767" gradientUnits="userSpaceOnUse" xlink:href="#linearGradient6327"/><linearGradient id="linearGradient6543" x1="59.214" x2="61.063" y1="94.75" y2="99.767" gradientUnits="userSpaceOnUse" xlink:href="#linearGradient6327"/><linearGradient id="linearGradient6545" x1="59.214" x2="61.063" y1="94.75" y2="100.847" gradientUnits="userSpaceOnUse" xlink:href="#linearGradient6327"/><linearGradient id="linearGradient6547" x1="59.574" x2="61.636" y1="82.664" y2="107.423" gradientTransform="translate(-48.000005,-181.64777)" gradientUnits="userSpaceOnUse" xlink:href="#linearGradient6381"/><linearGradient id="linearGradient6549" x1="57.474" x2="62.846" y1="101.717" y2="95.809" gradientUnits="userSpaceOnUse" xlink:href="#linearGradient6333"/><linearGradient id="linearGradient6567" x1="58.125" x2="58.25" y1="109.063" y2="96.5" gradientTransform="translate(-48.000005,-181.64777)" gradientUnits="userSpaceOnUse" xlink:href="#linearGradient5499"/><linearGradient id="linearGradient6569" x1="68.059" x2="69.363" y1="80.101" y2="94.811" gradientTransform="translate(-48.000005,-181.64777)" gradientUnits="userSpaceOnUse" xlink:href="#linearGradient6391"/><linearGradient id="linearGradient6571" x1="61.904" x2="62.72" y1="83.321" y2="86.597" gradientTransform="translate(-48.000005,-181.64777)" gradientUnits="userSpaceOnUse" xlink:href="#linearGradient6277"/><linearGradient id="linearGradient6573" x1="59.214" x2="61.56" y1="94.75" y2="100.889" gradientUnits="userSpaceOnUse" xlink:href="#linearGradient6327"/><linearGradient id="linearGradient6575" x1="57.474" x2="62.846" y1="101.717" y2="95.809" gradientUnits="userSpaceOnUse" xlink:href="#linearGradient6333"/><linearGradient id="linearGradient6577" x1="57.474" x2="62.846" y1="101.717" y2="95.809" gradientUnits="userSpaceOnUse" xlink:href="#linearGradient6333"/><linearGradient id="linearGradient6579" x1="57.474" x2="62.846" y1="101.717" y2="95.809" gradientUnits="userSpaceOnUse" xlink:href="#linearGradient6333"/><linearGradient id="linearGradient6581" x1="59.411" x2="61.063" y1="92.621" y2="98.453" gradientUnits="userSpaceOnUse" xlink:href="#linearGradient6327"/><linearGradient id="linearGradient6583" x1="59.214" x2="61.063" y1="94.75" y2="99.767" gradientUnits="userSpaceOnUse" xlink:href="#linearGradient6327"/><linearGradient id="linearGradient6585" x1="58.089" x2="61.063" y1="91.907" y2="99.767" gradientUnits="userSpaceOnUse" xlink:href="#linearGradient6327"/><linearGradient id="linearGradient6587" x1="59.214" x2="61.063" y1="94.75" y2="99.767" gradientUnits="userSpaceOnUse" xlink:href="#linearGradient6327"/><linearGradient id="linearGradient6589" x1="59.214" x2="61.063" y1="94.75" y2="100.847" gradientUnits="userSpaceOnUse" xlink:href="#linearGradient6327"/><linearGradient id="linearGradient6591" x1="59.574" x2="61.636" y1="82.664" y2="107.423" gradientTransform="translate(-48.000005,-181.64777)" gradientUnits="userSpaceOnUse" xlink:href="#linearGradient6381"/><linearGradient id="linearGradient6593" x1="57.474" x2="62.846" y1="101.717" y2="95.809" gradientUnits="userSpaceOnUse" xlink:href="#linearGradient6333"/><linearGradient id="linearGradient5577" x1="59.574" x2="61.636" y1="82.664" y2="107.423" gradientTransform="matrix(2.0888891,0,0,2.0888891,-103.44446,-152.68892)" gradientUnits="userSpaceOnUse" xlink:href="#linearGradient6381"/><linearGradient id="linearGradient5589" x1="61.904" x2="62.72" y1="83.321" y2="86.597" gradientTransform="matrix(2.0888891,0,0,2.0888891,-103.44446,-152.68892)" gradientUnits="userSpaceOnUse" xlink:href="#linearGradient6277"/><linearGradient id="linearGradient5592" x1="58.125" x2="58.25" y1="109.063" y2="96.5" gradientTransform="matrix(2.0800201,0,0,2.0976144,-102.99689,-153.61912)" gradientUnits="userSpaceOnUse" xlink:href="#linearGradient5499"/><linearGradient id="linearGradient5594" x1="68.059" x2="69.363" y1="80.101" y2="94.811" gradientTransform="matrix(2.0800201,0,0,2.0976144,-102.99689,-153.61912)" gradientUnits="userSpaceOnUse" xlink:href="#linearGradient6391"/><linearGradient id="linearGradient5597" x1="59.214" x2="61.56" y1="94.75" y2="100.889" gradientUnits="userSpaceOnUse" xlink:href="#linearGradient6327"/><linearGradient id="linearGradient5599" x1="59.411" x2="61.063" y1="92.621" y2="98.453" gradientUnits="userSpaceOnUse" xlink:href="#linearGradient6327"/><linearGradient id="linearGradient5601" x1="59.214" x2="61.063" y1="94.75" y2="100.847" gradientUnits="userSpaceOnUse" xlink:href="#linearGradient6327"/><linearGradient id="linearGradient5603" x1="57.474" x2="62.846" y1="101.717" y2="95.809" gradientUnits="userSpaceOnUse" xlink:href="#linearGradient6333"/><linearGradient id="linearGradient5605" x1="58.089" x2="61.063" y1="91.907" y2="99.767" gradientUnits="userSpaceOnUse" xlink:href="#linearGradient6327"/><linearGradient id="linearGradient5607" x1="59.214" x2="61.063" y1="94.75" y2="99.767" gradientUnits="userSpaceOnUse" xlink:href="#linearGradient6327"/><linearGradient id="linearGradient5609" x1="57.474" x2="62.846" y1="101.717" y2="95.809" gradientUnits="userSpaceOnUse" xlink:href="#linearGradient6333"/><linearGradient id="linearGradient5611" x1="57.474" x2="62.846" y1="101.717" y2="95.809" gradientUnits="userSpaceOnUse" xlink:href="#linearGradient6333"/><linearGradient id="linearGradient5613" x1="59.214" x2="61.063" y1="94.75" y2="99.767" gradientUnits="userSpaceOnUse" xlink:href="#linearGradient6327"/><linearGradient id="linearGradient5615" x1="57.474" x2="62.846" y1="101.717" y2="95.809" gradientUnits="userSpaceOnUse" xlink:href="#linearGradient6333"/></defs><metadata id="metadata5629"/><g id="layer1"><g id="g6597"><path id="path6402" d="M 95.625,104.6875 A 23.5,5.8125 0 1 1 48.625,104.6875 A 23.5,5.8125 0 1 1 95.625,104.6875 z" transform="matrix(0.9574467,0,0,0.8602154,-144.55585,-57.701573)" style="opacity:.1929134;fill:#2e3436;fill-opacity:1;fill-rule:evenodd;stroke:none;stroke-width:.64822143px;stroke-linecap:butt;stroke-linejoin:miter;marker:none;marker-start:none;marker-mid:none;marker-end:none;stroke-miterlimit:4;stroke-dasharray:none;stroke-dashoffset:0;stroke-opacity:1;visibility:visible;display:inline;overflow:visible;filter:url(#filter6476);enable-background:accumulate"/><path id="rect5494" d="M -97.535966,16.718724 L -79.640852,8.5 L -53.531255,19.000502 L -53.531255,34.961926 L -97.535966,33.843996 L -97.535966,16.718724 z" style="fill:url(#linearGradient6480);fill-opacity:1;fill-rule:evenodd;stroke:url(#linearGradient6389);stroke-width:1px;stroke-linecap:round;stroke-linejoin:round;marker:none;marker-start:none;marker-mid:none;marker-end:none;stroke-miterlimit:4;stroke-dashoffset:0;stroke-opacity:1;visibility:visible;display:inline;overflow:visible;enable-background:accumulate"/><path style="fill:url(#linearGradient6283);fill-opacity:1;fill-rule:evenodd;stroke:none;stroke-width:1px;stroke-linecap:butt;stroke-linejoin:miter;marker:none;marker-start:none;marker-mid:none;marker-end:none;stroke-miterlimit:4;stroke-dashoffset:0;stroke-opacity:1;visibility:visible;display:inline;overflow:visible;enable-background:accumulate" id="path5497" d="M -97.008507,17.35124 L -97.000884,17.04041 L -79.593755,9.029396 L -54.012029,19.363762 L -97.008507,17.35124 z"/><path id="path6305" d="M 65,98.453125 A 3.9375,3.703125 0 1 1 57.125,98.453125 A 3.9375,3.703125 0 1 1 65,98.453125 z" transform="matrix(0.8888889,0,0,0.9451477,-143.77778,-69.200517)" style="opacity:1;fill:url(#linearGradient6313);fill-opacity:1;fill-rule:evenodd;stroke:none;stroke-width:1px;stroke-linecap:butt;stroke-linejoin:miter;marker:none;marker-start:none;marker-mid:none;marker-end:none;stroke-miterlimit:4;stroke-dasharray:none;stroke-dashoffset:0;stroke-opacity:1;visibility:visible;display:inline;overflow:visible;enable-background:accumulate"/><path style="opacity:.68503933;fill:url(#linearGradient6317);fill-opacity:1;fill-rule:evenodd;stroke:none;stroke-width:1px;stroke-linecap:butt;stroke-linejoin:miter;marker:none;marker-start:none;marker-mid:none;marker-end:none;stroke-miterlimit:4;stroke-dasharray:none;stroke-dashoffset:0;stroke-opacity:1;visibility:visible;display:inline;overflow:visible;enable-background:accumulate" id="path6315" d="M 65,98.453125 A 3.9375,3.703125 0 1 1 57.125,98.453125 A 3.9375,3.703125 0 1 1 65,98.453125 z" transform="matrix(0.6180542,-0.3199843,0.6794832,0.3280733,-182.13718,-0.658574)"/><path id="path6319" d="M 65,98.453125 A 3.9375,3.703125 0 1 1 57.125,98.453125 A 3.9375,3.703125 0 1 1 65,98.453125 z" transform="matrix(0.3531742,-0.2742723,0.3882766,0.2812058,-122.79275,5.914388)" style="opacity:.68503933;fill:url(#linearGradient6398);fill-opacity:1;fill-rule:evenodd;stroke:none;stroke-width:1.42886794px;stroke-linecap:butt;stroke-linejoin:miter;marker:none;marker-start:none;marker-mid:none;marker-end:none;stroke-miterlimit:4;stroke-dasharray:none;stroke-dashoffset:0;stroke-opacity:1;visibility:visible;display:inline;overflow:visible;enable-background:accumulate"/><path style="opacity:.68503933;fill:url(#linearGradient6493);fill-opacity:1;fill-rule:evenodd;stroke:none;stroke-width:2.02072477px;stroke-linecap:butt;stroke-linejoin:miter;marker:none;marker-start:none;marker-mid:none;marker-end:none;stroke-miterlimit:4;stroke-dasharray:none;stroke-dashoffset:0;stroke-opacity:1;visibility:visible;display:inline;overflow:visible;enable-background:accumulate" id="path6323" d="M 65,98.453125 A 3.9375,3.703125 0 1 1 57.125,98.453125 A 3.9375,3.703125 0 1 1 65,98.453125 z" transform="matrix(0.2648807,-0.1828481,0.2912075,0.1874705,-130.34457,6.060331)"/><path style="opacity:1;fill:url(#linearGradient6347);fill-opacity:1;fill-rule:evenodd;stroke:none;stroke-width:1px;stroke-linecap:butt;stroke-linejoin:miter;marker:none;marker-start:none;marker-mid:none;marker-end:none;stroke-miterlimit:4;stroke-dasharray:none;stroke-dashoffset:0;stroke-opacity:1;visibility:visible;display:inline;overflow:visible;enable-background:accumulate" id="path6345" d="M 65,98.453125 A 3.9375,3.703125 0 1 1 57.125,98.453125 A 3.9375,3.703125 0 1 1 65,98.453125 z" transform="matrix(0.6349207,0,0,0.6751055,-121.26985,-38.61402)"/><path id="path6349" d="M 65,98.453125 A 3.9375,3.703125 0 1 1 57.125,98.453125 A 3.9375,3.703125 0 1 1 65,98.453125 z" transform="matrix(0.5079364,0,0,0.5400843,-91.015874,-28.820759)" style="opacity:1;fill:url(#linearGradient6351);fill-opacity:1;fill-rule:evenodd;stroke:none;stroke-width:1px;stroke-linecap:butt;stroke-linejoin:miter;marker:none;marker-start:none;marker-mid:none;marker-end:none;stroke-miterlimit:4;stroke-dasharray:none;stroke-dashoffset:0;stroke-opacity:1;visibility:visible;display:inline;overflow:visible;enable-background:accumulate"/><path style="opacity:1;fill:url(#linearGradient6355);fill-opacity:1;fill-rule:evenodd;stroke:none;stroke-width:1px;stroke-linecap:butt;stroke-linejoin:miter;marker:none;marker-start:none;marker-mid:none;marker-end:none;stroke-miterlimit:4;stroke-dasharray:none;stroke-dashoffset:0;stroke-opacity:1;visibility:visible;display:inline;overflow:visible;enable-background:accumulate" id="path6353" d="M 65,98.453125 A 3.9375,3.703125 0 1 1 57.125,98.453125 A 3.9375,3.703125 0 1 1 65,98.453125 z" transform="matrix(0.8888888,0,0,0.9451476,-123.77778,-62.200509)"/><path id="path6367" d="M 65,98.453125 A 3.9375,3.703125 0 1 1 57.125,98.453125 A 3.9375,3.703125 0 1 1 65,98.453125 z" transform="matrix(0.3809525,0,0,0.4050634,-116.76192,-8.027531)" style="opacity:1;fill:url(#linearGradient6369);fill-opacity:1;fill-rule:evenodd;stroke:none;stroke-width:1px;stroke-linecap:butt;stroke-linejoin:miter;marker:none;marker-start:none;marker-mid:none;marker-end:none;stroke-miterlimit:4;stroke-dasharray:none;stroke-dashoffset:0;stroke-opacity:1;visibility:visible;display:inline;overflow:visible;enable-background:accumulate"/><path style="opacity:1;fill:url(#linearGradient6373);fill-opacity:1;fill-rule:evenodd;stroke:none;stroke-width:1px;stroke-linecap:butt;stroke-linejoin:miter;marker:none;marker-start:none;marker-mid:none;marker-end:none;stroke-miterlimit:4;stroke-dasharray:none;stroke-dashoffset:0;stroke-opacity:1;visibility:visible;display:inline;overflow:visible;enable-background:accumulate" id="path6371" d="M 65,98.453125 A 3.9375,3.703125 0 1 1 57.125,98.453125 A 3.9375,3.703125 0 1 1 65,98.453125 z" transform="matrix(0.3809524,0,0,0.4050633,-98.761911,-16.027524)"/><path id="path6379" d="M -79.593755,9.539726 L -96.593755,17.352226 L -96.593755,35.914726 L -54.468755,34.039726 L -54.468755,19.633476 L -79.593755,9.539726 z" style="opacity:.32677164;fill:none;fill-opacity:1;fill-rule:evenodd;stroke:url(#linearGradient6400);stroke-width:1px;stroke-linecap:round;stroke-linejoin:round;marker:none;marker-start:none;marker-mid:none;marker-end:none;stroke-miterlimit:4;stroke-dashoffset:0;stroke-opacity:1;visibility:visible;display:inline;overflow:visible;enable-background:accumulate"/><path id="path6482" d="M 65,98.453125 A 3.9375,3.703125 0 1 1 57.125,98.453125 A 3.9375,3.703125 0 1 1 65,98.453125 z" transform="matrix(0.2648807,-0.1828481,0.2912075,0.1874705,-123.34458,10.060331)" style="opacity:.68503933;fill:url(#linearGradient6491);fill-opacity:1;fill-rule:evenodd;stroke:none;stroke-width:2.02072477px;stroke-linecap:butt;stroke-linejoin:miter;marker:none;marker-start:none;marker-mid:none;marker-end:none;stroke-miterlimit:4;stroke-dasharray:none;stroke-dashoffset:0;stroke-opacity:1;visibility:visible;display:inline;overflow:visible;enable-background:accumulate"/></g><g id="g5617"><path style="opacity:.1929134;fill:#2e3436;fill-opacity:1;fill-rule:evenodd;stroke:none;stroke-width:.64822143px;stroke-linecap:butt;stroke-linejoin:miter;marker:none;marker-start:none;marker-mid:none;marker-end:none;stroke-miterlimit:4;stroke-dasharray:none;stroke-dashoffset:0;stroke-opacity:1;visibility:visible;display:inline;overflow:visible;filter:url(#filter6476);enable-background:accumulate" id="path6495" d="M 95.625,104.6875 A 23.5,5.8125 0 1 1 48.625,104.6875 A 23.5,5.8125 0 1 1 95.625,104.6875 z" transform="matrix(1.9787234,0,0,1.7204301,-95.215423,-115.10752)"/><path style="fill:url(#linearGradient5592);fill-opacity:1;fill-rule:evenodd;stroke:url(#linearGradient5594);stroke-width:1px;stroke-linecap:round;stroke-linejoin:round;marker:none;marker-start:none;marker-mid:none;marker-end:none;stroke-miterlimit:4;stroke-dashoffset:0;stroke-opacity:1;visibility:visible;display:inline;overflow:visible;enable-background:accumulate" id="path6497" d="M 1.9693187,31.739714 L 38.970544,14.5 L 93.500001,36.526005 L 93.500001,70.006917 L 1.9693187,67.661931 L 1.9693187,31.739714 z"/><path id="path6499" d="M 2.461747,32.95452 L 2.4620456,32.102106 L 38.984568,15.063346 L 92.996481,36.866128 L 93.001532,37.0032 L 2.461747,32.95452 z" style="fill:url(#linearGradient5589);fill-opacity:1;fill-rule:evenodd;stroke:none;stroke-width:1px;stroke-linecap:butt;stroke-linejoin:miter;marker:none;marker-start:none;marker-mid:none;marker-end:none;stroke-miterlimit:4;stroke-dashoffset:0;stroke-opacity:1;visibility:visible;display:inline;overflow:visible;enable-background:accumulate"/><path style="fill:url(#linearGradient5597);fill-opacity:1;fill-rule:evenodd;stroke:none;stroke-width:1px;stroke-linecap:butt;stroke-linejoin:miter;marker:none;marker-start:none;marker-mid:none;marker-end:none;stroke-miterlimit:4;stroke-dasharray:none;stroke-dashoffset:0;stroke-opacity:1;visibility:visible;display:inline;overflow:visible;enable-background:accumulate" id="path6501" d="M 65,98.453125 A 3.9375,3.703125 0 1 1 57.125,98.453125 A 3.9375,3.703125 0 1 1 65,98.453125 z" transform="matrix(1.7777778,0,0,1.8902954,-90.555556,-140.10549)"/><path id="path6503" d="M 65,98.453125 A 3.9375,3.703125 0 1 1 57.125,98.453125 A 3.9375,3.703125 0 1 1 65,98.453125 z" transform="matrix(1.2361088,-0.7313933,1.3589668,0.7498823,-165.27443,-6.167559)" style="opacity:.68503933;fill:url(#linearGradient5611);fill-opacity:1;fill-rule:evenodd;stroke:none;stroke-width:1px;stroke-linecap:butt;stroke-linejoin:miter;marker:none;marker-start:none;marker-mid:none;marker-end:none;stroke-miterlimit:4;stroke-dasharray:none;stroke-dashoffset:0;stroke-opacity:1;visibility:visible;display:inline;overflow:visible;enable-background:accumulate"/><path style="opacity:.68503933;fill:url(#linearGradient5609);fill-opacity:1;fill-rule:evenodd;stroke:none;stroke-width:1.42886794px;stroke-linecap:butt;stroke-linejoin:miter;marker:none;marker-start:none;marker-mid:none;marker-end:none;stroke-miterlimit:4;stroke-dasharray:none;stroke-dashoffset:0;stroke-opacity:1;visibility:visible;display:inline;overflow:visible;enable-background:accumulate" id="path6505" d="M 65,98.453125 A 3.9375,3.703125 0 1 1 57.125,98.453125 A 3.9375,3.703125 0 1 1 65,98.453125 z" transform="matrix(0.7063476,-0.5485445,0.7765524,0.5624114,-45.585361,10.124332)"/><path id="path6507" d="M 65,98.453125 A 3.9375,3.703125 0 1 1 57.125,98.453125 A 3.9375,3.703125 0 1 1 65,98.453125 z" transform="matrix(0.5533064,-0.3819494,0.6083002,0.3916051,-66.564223,9.634686)" style="opacity:.68503933;fill:url(#linearGradient5615);fill-opacity:1;fill-rule:evenodd;stroke:none;stroke-width:2.02072477px;stroke-linecap:butt;stroke-linejoin:miter;marker:none;marker-start:none;marker-mid:none;marker-end:none;stroke-miterlimit:4;stroke-dasharray:none;stroke-dashoffset:0;stroke-opacity:1;visibility:visible;display:inline;overflow:visible;enable-background:accumulate"/><path id="path6509" d="M 65,98.453125 A 3.9375,3.703125 0 1 1 57.125,98.453125 A 3.9375,3.703125 0 1 1 65,98.453125 z" transform="matrix(1.2698413,0,0,1.3502109,-43.539686,-77.932484)" style="fill:url(#linearGradient5599);fill-opacity:1;fill-rule:evenodd;stroke:none;stroke-width:1px;stroke-linecap:butt;stroke-linejoin:miter;marker:none;marker-start:none;marker-mid:none;marker-end:none;stroke-miterlimit:4;stroke-dasharray:none;stroke-dashoffset:0;stroke-opacity:1;visibility:visible;display:inline;overflow:visible;enable-background:accumulate"/><path style="fill:url(#linearGradient5613);fill-opacity:1;fill-rule:evenodd;stroke:none;stroke-width:1px;stroke-linecap:butt;stroke-linejoin:miter;marker:none;marker-start:none;marker-mid:none;marker-end:none;stroke-miterlimit:4;stroke-dasharray:none;stroke-dashoffset:0;stroke-opacity:1;visibility:visible;display:inline;overflow:visible;enable-background:accumulate" id="path6511" d="M 65,98.453125 A 3.9375,3.703125 0 1 1 57.125,98.453125 A 3.9375,3.703125 0 1 1 65,98.453125 z" transform="matrix(1.0610228,0,0,1.1281762,15.589068,-63.228042)"/><path id="path6513" d="M 65,98.453125 A 3.9375,3.703125 0 1 1 57.125,98.453125 A 3.9375,3.703125 0 1 1 65,98.453125 z" transform="matrix(1.9047618,0,0,2.0253174,-55.809517,-137.89883)" style="fill:url(#linearGradient5605);fill-opacity:1;fill-rule:evenodd;stroke:none;stroke-width:1px;stroke-linecap:butt;stroke-linejoin:miter;marker:none;marker-start:none;marker-mid:none;marker-end:none;stroke-miterlimit:4;stroke-dasharray:none;stroke-dashoffset:0;stroke-opacity:1;visibility:visible;display:inline;overflow:visible;enable-background:accumulate"/><path style="fill:url(#linearGradient5607);fill-opacity:1;fill-rule:evenodd;stroke:none;stroke-width:1px;stroke-linecap:butt;stroke-linejoin:miter;marker:none;marker-start:none;marker-mid:none;marker-end:none;stroke-miterlimit:4;stroke-dasharray:none;stroke-dashoffset:0;stroke-opacity:1;visibility:visible;display:inline;overflow:visible;enable-background:accumulate" id="path6515" d="M 65,98.453125 A 3.9375,3.703125 0 1 1 57.125,98.453125 A 3.9375,3.703125 0 1 1 65,98.453125 z" transform="matrix(0.7619045,0,0,0.8101265,-35.523795,-16.759488)"/><path id="path6517" d="M 65,98.453125 A 3.9375,3.703125 0 1 1 57.125,98.453125 A 3.9375,3.703125 0 1 1 65,98.453125 z" transform="matrix(0.7619048,0,0,0.8101265,1.4761906,-32.759488)" style="fill:url(#linearGradient5601);fill-opacity:1;fill-rule:evenodd;stroke:none;stroke-width:1px;stroke-linecap:butt;stroke-linejoin:miter;marker:none;marker-start:none;marker-mid:none;marker-end:none;stroke-miterlimit:4;stroke-dasharray:none;stroke-dashoffset:0;stroke-opacity:1;visibility:visible;display:inline;overflow:visible;enable-background:accumulate"/><path style="opacity:.32677164;fill:none;fill-opacity:1;fill-rule:evenodd;stroke:url(#linearGradient5577);stroke-width:1px;stroke-linecap:round;stroke-linejoin:round;marker:none;marker-start:none;marker-mid:none;marker-end:none;stroke-miterlimit:4;stroke-dashoffset:0;stroke-opacity:1;visibility:visible;display:inline;overflow:visible;enable-background:accumulate" id="path6519" d="M 39.028762,15.599039 L 2.874993,32.472205 L 3.249993,66.497209 L 91.931946,69.205542 L 92.528567,37.191988 L 39.028762,15.599039 z"/><path style="opacity:.68503933;fill:url(#linearGradient5603);fill-opacity:1;fill-rule:evenodd;stroke:none;stroke-width:2.02072477px;stroke-linecap:butt;stroke-linejoin:miter;marker:none;marker-start:none;marker-mid:none;marker-end:none;stroke-miterlimit:4;stroke-dasharray:none;stroke-dashoffset:0;stroke-opacity:1;visibility:visible;display:inline;overflow:visible;enable-background:accumulate" id="path6521" d="M 65,98.453125 A 3.9375,3.703125 0 1 1 57.125,98.453125 A 3.9375,3.703125 0 1 1 65,98.453125 z" transform="matrix(0.6180546,-0.3941378,0.6794838,0.4041016,-63.137258,17.437521)"/></g></g></svg>