<svg xmlns="http://www.w3.org/2000/svg" xmlns:svg="http://www.w3.org/2000/svg" xmlns:xlink="http://www.w3.org/1999/xlink" id="svg5624" width="96" height="96" version="1.0"><defs id="defs5626"><linearGradient id="linearGradient5645" x1="57.474" x2="62.846" y1="101.717" y2="95.809" gradientUnits="userSpaceOnUse" xlink:href="#linearGradient6333"/><linearGradient id="linearGradient6538" x1="57.474" x2="62.846" y1="101.717" y2="95.809" gradientUnits="userSpaceOnUse" xlink:href="#linearGradient6333"/><linearGradient id="linearGradient5641" x1="59.214" x2="61.063" y1="94.75" y2="100.847" gradientUnits="userSpaceOnUse" xlink:href="#linearGradient6327"/><linearGradient id="linearGradient5637" x1="58.089" x2="61.063" y1="91.907" y2="99.767" gradientUnits="userSpaceOnUse" xlink:href="#linearGradient6327"/><linearGradient id="linearGradient5635" x1="59.214" x2="61.063" y1="94.75" y2="99.767" gradientUnits="userSpaceOnUse" xlink:href="#linearGradient6327"/><linearGradient id="linearGradient5633" x1="59.411" x2="61.063" y1="92.621" y2="98.453" gradientUnits="userSpaceOnUse" xlink:href="#linearGradient6327"/><linearGradient id="linearGradient6333"><stop id="stop6335" offset="0" style="stop-color:#d3bf1a;stop-opacity:1"/><stop id="stop6337" offset="1" style="stop-color:#e3cb00;stop-opacity:0"/></linearGradient><linearGradient id="linearGradient5629" x1="57.474" x2="62.846" y1="101.717" y2="95.809" gradientUnits="userSpaceOnUse" xlink:href="#linearGradient6333"/><linearGradient id="linearGradient5663" x1="61.904" x2="62.72" y1="83.321" y2="86.597" gradientTransform="matrix(2.0888891,0,0,2.0888891,-287.44446,-152.68892)" gradientUnits="userSpaceOnUse" xlink:href="#linearGradient6277"/><linearGradient id="linearGradient5668" x1="68.059" x2="69.363" y1="80.101" y2="94.811" gradientTransform="matrix(2.0800201,0,0,2.0976144,-286.99689,-153.61912)" gradientUnits="userSpaceOnUse" xlink:href="#linearGradient6391"/><linearGradient id="linearGradient5666" x1="58.125" x2="58.25" y1="109.063" y2="96.5" gradientTransform="matrix(2.0800201,0,0,2.0976144,-286.99689,-153.61912)" gradientUnits="userSpaceOnUse" xlink:href="#linearGradient5499"/><filter id="filter6476" width="1.395" height="2.595" x="-.197" y="-.797"><feGaussianBlur id="feGaussianBlur6478" stdDeviation="3.863"/></filter><linearGradient id="linearGradient6327"><stop id="stop6329" offset="0" style="stop-color:#c4a000;stop-opacity:1"/><stop id="stop6331" offset="1" style="stop-color:#e3cb00;stop-opacity:0"/></linearGradient><linearGradient id="linearGradient6277"><stop style="stop-color:#fdee77;stop-opacity:1" id="stop6279" offset="0"/><stop style="stop-color:#fce94f;stop-opacity:1" id="stop6281" offset="1"/></linearGradient><linearGradient id="linearGradient6391"><stop id="stop6393" offset="0" style="stop-color:#e6ce00;stop-opacity:1"/><stop id="stop6395" offset="1" style="stop-color:#c4a000;stop-opacity:1"/></linearGradient><linearGradient id="linearGradient5499"><stop style="stop-color:#ddc600;stop-opacity:1" id="stop5501" offset="0"/><stop style="stop-color:#edd400;stop-opacity:1" id="stop5503" offset="1"/></linearGradient><linearGradient id="linearGradient6967" x1="63.053" x2="57.048" y1="102.865" y2="88.038" gradientTransform="matrix(2.0800201,0,0,2.0976144,-562.99689,-153.61912)" gradientUnits="userSpaceOnUse" xlink:href="#linearGradient5499"/><linearGradient id="linearGradient6969" x1="64.004" x2="70.325" y1="82.782" y2="97.851" gradientTransform="matrix(2.0800201,0,0,2.0976144,-562.99689,-153.61912)" gradientUnits="userSpaceOnUse" xlink:href="#linearGradient6391"/><linearGradient id="linearGradient6971" x1="61.426" x2="68.943" y1="79.922" y2="84.562" gradientTransform="matrix(2.0888891,0,0,2.0888891,-564.44446,-154.68892)" gradientUnits="userSpaceOnUse" xlink:href="#linearGradient6277"/><linearGradient id="linearGradient6973" x1="59.214" x2="61.56" y1="94.75" y2="100.889" gradientUnits="userSpaceOnUse" xlink:href="#linearGradient6327"/><linearGradient id="linearGradient6975" x1="59.214" x2="61.56" y1="94.75" y2="100.889" gradientUnits="userSpaceOnUse" xlink:href="#linearGradient6327"/><linearGradient id="linearGradient6977" x1="59.214" x2="61.56" y1="94.75" y2="100.889" gradientUnits="userSpaceOnUse" xlink:href="#linearGradient6327"/><linearGradient id="linearGradient6979" x1="59.214" x2="61.56" y1="94.75" y2="100.889" gradientUnits="userSpaceOnUse" xlink:href="#linearGradient6327"/><linearGradient id="linearGradient6981" x1="59.214" x2="61.56" y1="94.75" y2="100.889" gradientUnits="userSpaceOnUse" xlink:href="#linearGradient6327"/><linearGradient id="linearGradient6983" x1="59.214" x2="61.56" y1="94.75" y2="100.889" gradientUnits="userSpaceOnUse" xlink:href="#linearGradient6327"/><linearGradient id="linearGradient6985" x1="59.214" x2="61.56" y1="94.75" y2="100.889" gradientUnits="userSpaceOnUse" xlink:href="#linearGradient6327"/><linearGradient id="linearGradient7055" x1="61.904" x2="62.72" y1="83.321" y2="86.597" gradientTransform="matrix(2.0888891,0,0,2.0888891,-287.44446,-152.68892)" gradientUnits="userSpaceOnUse" xlink:href="#linearGradient6277"/><linearGradient id="linearGradient7057" x1="57.474" x2="62.846" y1="101.717" y2="95.809" gradientUnits="userSpaceOnUse" xlink:href="#linearGradient6333"/><linearGradient id="linearGradient7059" x1="59.411" x2="61.063" y1="92.621" y2="98.453" gradientUnits="userSpaceOnUse" xlink:href="#linearGradient6327"/><linearGradient id="linearGradient7061" x1="59.214" x2="61.063" y1="94.75" y2="99.767" gradientUnits="userSpaceOnUse" xlink:href="#linearGradient6327"/><linearGradient id="linearGradient7063" x1="58.089" x2="61.063" y1="91.907" y2="99.767" gradientUnits="userSpaceOnUse" xlink:href="#linearGradient6327"/><linearGradient id="linearGradient7065" x1="59.214" x2="61.063" y1="94.75" y2="100.847" gradientUnits="userSpaceOnUse" xlink:href="#linearGradient6327"/></defs><metadata id="metadata5629"/><g id="layer1" transform="translate(-72.45703,-557.32003)"><g id="g7007" transform="matrix(1.1375,0,0,1.1375,264.33202,550.72003)"><path style="opacity:.1929134;fill:#2e3436;fill-opacity:1;fill-rule:evenodd;stroke:none;stroke-width:.64822143px;stroke-linecap:butt;stroke-linejoin:miter;marker:none;marker-start:none;marker-mid:none;marker-end:none;stroke-miterlimit:4;stroke-dasharray:none;stroke-dashoffset:0;stroke-opacity:1;visibility:visible;display:inline;overflow:visible;filter:url(#filter6476);enable-background:accumulate" id="path5675" d="M 95.625,104.6875 A 23.5,5.8125 0 1 1 48.625,104.6875 A 23.5,5.8125 0 1 1 95.625,104.6875 z" transform="matrix(1.7021277,0,0,1.7204301,-252.76595,-115.10752)"/><path id="path5593" d="M -162.03068,37.739714 L -105.02946,21.5 L -90.499999,36.526005 L -90.499999,70.006917 L -162.03068,67.661931 L -162.03068,37.739714 z" style="fill:url(#linearGradient5666);fill-opacity:1;fill-rule:evenodd;stroke:url(#linearGradient5668);stroke-width:1px;stroke-linecap:round;stroke-linejoin:round;marker:none;marker-start:none;marker-mid:none;marker-end:none;stroke-miterlimit:4;stroke-dashoffset:0;stroke-opacity:1;visibility:visible;display:inline;overflow:visible;enable-background:accumulate"/><path style="fill:url(#linearGradient7055);fill-opacity:1;fill-rule:evenodd;stroke:none;stroke-width:1px;stroke-linecap:butt;stroke-linejoin:miter;marker:none;marker-start:none;marker-mid:none;marker-end:none;stroke-miterlimit:4;stroke-dashoffset:0;stroke-opacity:1;visibility:visible;display:inline;overflow:visible;enable-background:accumulate" id="path5595" d="M -161.53825,38.95452 L -161.53795,38.102106 L -105.01543,22.063346 L -91.003519,36.866128 L -90.998468,37.0032 L -161.53825,38.95452 z"/><path id="path5601" d="M 65,98.453125 A 3.9375,3.703125 0 1 1 57.125,98.453125 A 3.9375,3.703125 0 1 1 65,98.453125 z" transform="matrix(0.7063476,-0.5485445,0.7765524,0.5624114,-229.58536,10.124332)" style="opacity:.68503933;fill:url(#linearGradient7057);fill-opacity:1;fill-rule:evenodd;stroke:none;stroke-width:1.42886794px;stroke-linecap:butt;stroke-linejoin:miter;marker:none;marker-start:none;marker-mid:none;marker-end:none;stroke-miterlimit:4;stroke-dasharray:none;stroke-dashoffset:0;stroke-opacity:1;visibility:visible;display:inline;overflow:visible;enable-background:accumulate"/><path style="fill:url(#linearGradient7059);fill-opacity:1;fill-rule:evenodd;stroke:none;stroke-width:1px;stroke-linecap:butt;stroke-linejoin:miter;marker:none;marker-start:none;marker-mid:none;marker-end:none;stroke-miterlimit:4;stroke-dasharray:none;stroke-dashoffset:0;stroke-opacity:1;visibility:visible;display:inline;overflow:visible;enable-background:accumulate" id="path5605" d="M 65,98.453125 A 3.9375,3.703125 0 1 1 57.125,98.453125 A 3.9375,3.703125 0 1 1 65,98.453125 z" transform="matrix(1.2698413,0,0,1.3502109,-227.53969,-77.932484)"/><path id="path5607" d="M 65,98.453125 A 3.9375,3.703125 0 1 1 57.125,98.453125 A 3.9375,3.703125 0 1 1 65,98.453125 z" transform="matrix(1.0610228,0,0,1.1281762,-168.41093,-63.228042)" style="fill:url(#linearGradient7061);fill-opacity:1;fill-rule:evenodd;stroke:none;stroke-width:1px;stroke-linecap:butt;stroke-linejoin:miter;marker:none;marker-start:none;marker-mid:none;marker-end:none;stroke-miterlimit:4;stroke-dasharray:none;stroke-dashoffset:0;stroke-opacity:1;visibility:visible;display:inline;overflow:visible;enable-background:accumulate"/><path style="fill:url(#linearGradient7063);fill-opacity:1;fill-rule:evenodd;stroke:none;stroke-width:1px;stroke-linecap:butt;stroke-linejoin:miter;marker:none;marker-start:none;marker-mid:none;marker-end:none;stroke-miterlimit:4;stroke-dasharray:none;stroke-dashoffset:0;stroke-opacity:1;visibility:visible;display:inline;overflow:visible;enable-background:accumulate" id="path5609" d="M 65,98.453125 A 3.9375,3.703125 0 1 1 57.125,98.453125 A 3.9375,3.703125 0 1 1 65,98.453125 z" transform="matrix(1.9047618,0,0,2.0253174,-239.80952,-137.89883)"/><path style="fill:url(#linearGradient7065);fill-opacity:1;fill-rule:evenodd;stroke:none;stroke-width:1px;stroke-linecap:butt;stroke-linejoin:miter;marker:none;marker-start:none;marker-mid:none;marker-end:none;stroke-miterlimit:4;stroke-dasharray:none;stroke-dashoffset:0;stroke-opacity:1;visibility:visible;display:inline;overflow:visible;enable-background:accumulate" id="path5613" d="M 65,98.453125 A 3.9375,3.703125 0 1 1 57.125,98.453125 A 3.9375,3.703125 0 1 1 65,98.453125 z" transform="matrix(0.7619048,0,0,0.8101265,-182.52381,-32.759488)"/><path id="path5679" d="M -161.53825,38.95452 L -161.53795,38.102106 L -105.01543,22.063346 L -91.003519,36.866128 L -90.998468,37.0032 L -161.53825,38.95452 z" style="fill:url(#linearGradient5663);fill-opacity:1;fill-rule:evenodd;stroke:none;stroke-width:1px;stroke-linecap:butt;stroke-linejoin:miter;marker:none;marker-start:none;marker-mid:none;marker-end:none;stroke-miterlimit:4;stroke-dashoffset:0;stroke-opacity:1;visibility:visible;display:inline;overflow:visible;enable-background:accumulate"/><path id="path5683" d="M 65,98.453125 A 3.9375,3.703125 0 1 1 57.125,98.453125 A 3.9375,3.703125 0 1 1 65,98.453125 z" transform="matrix(1.2361088,-0.7313933,1.3589668,0.7498823,-332.27442,0.8324504)" style="opacity:.68503933;fill:url(#linearGradient6538);fill-opacity:1;fill-rule:evenodd;stroke:none;stroke-width:1px;stroke-linecap:butt;stroke-linejoin:miter;marker:none;marker-start:none;marker-mid:none;marker-end:none;stroke-miterlimit:4;stroke-dasharray:none;stroke-dashoffset:0;stroke-opacity:1;visibility:visible;display:inline;overflow:visible;enable-background:accumulate"/><path style="opacity:.68503933;fill:url(#linearGradient5629);fill-opacity:1;fill-rule:evenodd;stroke:none;stroke-width:1.42886794px;stroke-linecap:butt;stroke-linejoin:miter;marker:none;marker-start:none;marker-mid:none;marker-end:none;stroke-miterlimit:4;stroke-dasharray:none;stroke-dashoffset:0;stroke-opacity:1;visibility:visible;display:inline;overflow:visible;enable-background:accumulate" id="path5685" d="M 65,98.453125 A 3.9375,3.703125 0 1 1 57.125,98.453125 A 3.9375,3.703125 0 1 1 65,98.453125 z" transform="matrix(0.7063476,-0.5485445,0.7765524,0.5624114,-229.58536,10.124332)"/><path id="path5689" d="M 65,98.453125 A 3.9375,3.703125 0 1 1 57.125,98.453125 A 3.9375,3.703125 0 1 1 65,98.453125 z" transform="matrix(1.2698413,0,0,1.3502109,-227.53969,-77.932484)" style="fill:url(#linearGradient5633);fill-opacity:1;fill-rule:evenodd;stroke:none;stroke-width:1px;stroke-linecap:butt;stroke-linejoin:miter;marker:none;marker-start:none;marker-mid:none;marker-end:none;stroke-miterlimit:4;stroke-dasharray:none;stroke-dashoffset:0;stroke-opacity:1;visibility:visible;display:inline;overflow:visible;enable-background:accumulate"/><path style="fill:url(#linearGradient5635);fill-opacity:1;fill-rule:evenodd;stroke:none;stroke-width:1px;stroke-linecap:butt;stroke-linejoin:miter;marker:none;marker-start:none;marker-mid:none;marker-end:none;stroke-miterlimit:4;stroke-dasharray:none;stroke-dashoffset:0;stroke-opacity:1;visibility:visible;display:inline;overflow:visible;enable-background:accumulate" id="path5691" d="M 65,98.453125 A 3.9375,3.703125 0 1 1 57.125,98.453125 A 3.9375,3.703125 0 1 1 65,98.453125 z" transform="matrix(1.0610228,0,0,1.1281762,-168.41093,-63.228042)"/><path id="path5693" d="M 65,98.453125 A 3.9375,3.703125 0 1 1 57.125,98.453125 A 3.9375,3.703125 0 1 1 65,98.453125 z" transform="matrix(1.9047618,0,0,2.0253174,-239.80952,-137.89883)" style="fill:url(#linearGradient5637);fill-opacity:1;fill-rule:evenodd;stroke:none;stroke-width:1px;stroke-linecap:butt;stroke-linejoin:miter;marker:none;marker-start:none;marker-mid:none;marker-end:none;stroke-miterlimit:4;stroke-dasharray:none;stroke-dashoffset:0;stroke-opacity:1;visibility:visible;display:inline;overflow:visible;enable-background:accumulate"/><path id="path5697" d="M 65,98.453125 A 3.9375,3.703125 0 1 1 57.125,98.453125 A 3.9375,3.703125 0 1 1 65,98.453125 z" transform="matrix(0.7619048,0,0,0.8101265,-182.52381,-32.759488)" style="fill:url(#linearGradient5641);fill-opacity:1;fill-rule:evenodd;stroke:none;stroke-width:1px;stroke-linecap:butt;stroke-linejoin:miter;marker:none;marker-start:none;marker-mid:none;marker-end:none;stroke-miterlimit:4;stroke-dasharray:none;stroke-dashoffset:0;stroke-opacity:1;visibility:visible;display:inline;overflow:visible;enable-background:accumulate"/><path id="path5617" d="M 65,98.453125 A 3.9375,3.703125 0 1 1 57.125,98.453125 A 3.9375,3.703125 0 1 1 65,98.453125 z" transform="matrix(0.6180546,-0.3941378,0.6794838,0.4041016,-247.13726,17.437521)" style="opacity:.68503933;fill:url(#linearGradient5645);fill-opacity:1;fill-rule:evenodd;stroke:none;stroke-width:2.02072477px;stroke-linecap:butt;stroke-linejoin:miter;marker:none;marker-start:none;marker-mid:none;marker-end:none;stroke-miterlimit:4;stroke-dasharray:none;stroke-dashoffset:0;stroke-opacity:1;visibility:visible;display:inline;overflow:visible;enable-background:accumulate"/></g></g></svg>