<svg xmlns="http://www.w3.org/2000/svg" xmlns:svg="http://www.w3.org/2000/svg" xmlns:xlink="http://www.w3.org/1999/xlink" id="svg5624" width="96" height="96" version="1.0"><defs id="defs5626"><filter id="filter6476" width="1.395" height="2.595" x="-.197" y="-.797"><feGaussianBlur id="feGaussianBlur6478" stdDeviation="3.863"/></filter><linearGradient id="linearGradient6887" x1="59.214" x2="61.56" y1="94.75" y2="100.889" gradientUnits="userSpaceOnUse" xlink:href="#linearGradient6327"/><linearGradient id="linearGradient6885" x1="59.214" x2="61.56" y1="94.75" y2="100.889" gradientUnits="userSpaceOnUse" xlink:href="#linearGradient6327"/><linearGradient id="linearGradient6883" x1="59.214" x2="61.56" y1="94.75" y2="100.889" gradientUnits="userSpaceOnUse" xlink:href="#linearGradient6327"/><linearGradient id="linearGradient6881" x1="59.214" x2="61.56" y1="94.75" y2="100.889" gradientUnits="userSpaceOnUse" xlink:href="#linearGradient6327"/><linearGradient id="linearGradient6879" x1="59.214" x2="61.56" y1="94.75" y2="100.889" gradientUnits="userSpaceOnUse" xlink:href="#linearGradient6327"/><linearGradient id="linearGradient6877" x1="59.214" x2="61.56" y1="94.75" y2="100.889" gradientUnits="userSpaceOnUse" xlink:href="#linearGradient6327"/><linearGradient id="linearGradient6327"><stop id="stop6329" offset="0" style="stop-color:#c4a000;stop-opacity:1"/><stop id="stop6331" offset="1" style="stop-color:#e3cb00;stop-opacity:0"/></linearGradient><linearGradient id="linearGradient6875" x1="59.214" x2="61.56" y1="94.75" y2="100.889" gradientUnits="userSpaceOnUse" xlink:href="#linearGradient6327"/><linearGradient id="linearGradient6277"><stop style="stop-color:#fdee77;stop-opacity:1" id="stop6279" offset="0"/><stop style="stop-color:#fce94f;stop-opacity:1" id="stop6281" offset="1"/></linearGradient><linearGradient id="linearGradient6873" x1="61.426" x2="68.943" y1="79.922" y2="84.562" gradientTransform="matrix(2.0888891,0,0,2.0888891,-564.44446,-154.68892)" gradientUnits="userSpaceOnUse" xlink:href="#linearGradient6277"/><linearGradient id="linearGradient6391"><stop id="stop6393" offset="0" style="stop-color:#e6ce00;stop-opacity:1"/><stop id="stop6395" offset="1" style="stop-color:#c4a000;stop-opacity:1"/></linearGradient><linearGradient id="linearGradient6871" x1="64.004" x2="70.325" y1="82.782" y2="97.851" gradientTransform="matrix(2.0800201,0,0,2.0976144,-562.99689,-153.61912)" gradientUnits="userSpaceOnUse" xlink:href="#linearGradient6391"/><linearGradient id="linearGradient5499"><stop style="stop-color:#ddc600;stop-opacity:1" id="stop5501" offset="0"/><stop style="stop-color:#edd400;stop-opacity:1" id="stop5503" offset="1"/></linearGradient><linearGradient id="linearGradient6869" x1="63.053" x2="57.048" y1="102.865" y2="88.038" gradientTransform="matrix(2.0800201,0,0,2.0976144,-562.99689,-153.61912)" gradientUnits="userSpaceOnUse" xlink:href="#linearGradient5499"/><linearGradient id="linearGradient6967" x1="63.053" x2="57.048" y1="102.865" y2="88.038" gradientTransform="matrix(2.0800201,0,0,2.0976144,-562.99689,-153.61912)" gradientUnits="userSpaceOnUse" xlink:href="#linearGradient5499"/><linearGradient id="linearGradient6969" x1="64.004" x2="70.325" y1="82.782" y2="97.851" gradientTransform="matrix(2.0800201,0,0,2.0976144,-562.99689,-153.61912)" gradientUnits="userSpaceOnUse" xlink:href="#linearGradient6391"/><linearGradient id="linearGradient6971" x1="61.426" x2="68.943" y1="79.922" y2="84.562" gradientTransform="matrix(2.0888891,0,0,2.0888891,-564.44446,-154.68892)" gradientUnits="userSpaceOnUse" xlink:href="#linearGradient6277"/><linearGradient id="linearGradient6973" x1="59.214" x2="61.56" y1="94.75" y2="100.889" gradientUnits="userSpaceOnUse" xlink:href="#linearGradient6327"/><linearGradient id="linearGradient6975" x1="59.214" x2="61.56" y1="94.75" y2="100.889" gradientUnits="userSpaceOnUse" xlink:href="#linearGradient6327"/><linearGradient id="linearGradient6977" x1="59.214" x2="61.56" y1="94.75" y2="100.889" gradientUnits="userSpaceOnUse" xlink:href="#linearGradient6327"/><linearGradient id="linearGradient6979" x1="59.214" x2="61.56" y1="94.75" y2="100.889" gradientUnits="userSpaceOnUse" xlink:href="#linearGradient6327"/><linearGradient id="linearGradient6981" x1="59.214" x2="61.56" y1="94.75" y2="100.889" gradientUnits="userSpaceOnUse" xlink:href="#linearGradient6327"/><linearGradient id="linearGradient6983" x1="59.214" x2="61.56" y1="94.75" y2="100.889" gradientUnits="userSpaceOnUse" xlink:href="#linearGradient6327"/><linearGradient id="linearGradient6985" x1="59.214" x2="61.56" y1="94.75" y2="100.889" gradientUnits="userSpaceOnUse" xlink:href="#linearGradient6327"/></defs><metadata id="metadata5629"/><g id="layer1" transform="translate(-72.45703,-557.32003)"><path style="opacity:.1929134;fill:#2e3436;fill-opacity:1;fill-rule:evenodd;stroke:none;stroke-width:.64822143px;stroke-linecap:butt;stroke-linejoin:miter;marker:none;marker-start:none;marker-mid:none;marker-end:none;stroke-miterlimit:4;stroke-dasharray:none;stroke-dashoffset:0;stroke-opacity:1;visibility:visible;display:inline;overflow:visible;filter:url(#filter6476);enable-background:accumulate" id="path6616" d="M 95.625,104.6875 A 23.5,5.8125 0 1 1 48.625,104.6875 A 23.5,5.8125 0 1 1 95.625,104.6875 z" transform="matrix(1.1276597,0,0,1.7369797,22.624577,416.24124)"/><g id="g6857" transform="matrix(1.3336398,0,0,1.3497303,673.90827,545.5898)"><path id="path6618" d="M -440.49943,18.552214 L -389.52946,18.5 L -389.42416,47.611504 L -412.5,70.006917 L -440.56193,47.599431 L -440.49943,18.552214 z" style="fill:url(#linearGradient6967);fill-opacity:1;fill-rule:evenodd;stroke:url(#linearGradient6969);stroke-width:.99665511px;stroke-linecap:round;stroke-linejoin:round;marker:none;marker-start:none;marker-mid:none;marker-end:none;stroke-miterlimit:4;stroke-dashoffset:0;stroke-opacity:1;visibility:visible;display:inline;overflow:visible;enable-background:accumulate"/><path style="fill:url(#linearGradient6971);fill-opacity:1;fill-rule:evenodd;stroke:none;stroke-width:1px;stroke-linecap:butt;stroke-linejoin:miter;marker:none;marker-start:none;marker-mid:none;marker-end:none;stroke-miterlimit:4;stroke-dashoffset:0;stroke-opacity:1;visibility:visible;display:inline;overflow:visible;enable-background:accumulate" id="path6620" d="M -412.78795,33.102106 L -440.29665,18.985221 L -389.98449,19.039568 L -412.78795,33.102106 z"/><path id="path6622" d="M 65,98.453125 A 3.9375,3.703125 0 1 1 57.125,98.453125 A 3.9375,3.703125 0 1 1 65,98.453125 z" transform="matrix(1.0634921,-0.5720738,0,1.4225238,-467.00199,-70.119661)" style="fill:url(#linearGradient6973);fill-opacity:1;fill-rule:evenodd;stroke:none;stroke-width:1px;stroke-linecap:butt;stroke-linejoin:miter;marker:none;marker-start:none;marker-mid:none;marker-end:none;stroke-miterlimit:4;stroke-dasharray:none;stroke-dashoffset:0;stroke-opacity:1;visibility:visible;display:inline;overflow:visible;enable-background:accumulate"/><path style="fill:url(#linearGradient6975);fill-opacity:1;fill-rule:evenodd;stroke:none;stroke-width:1px;stroke-linecap:butt;stroke-linejoin:miter;marker:none;marker-start:none;marker-mid:none;marker-end:none;stroke-miterlimit:4;stroke-dasharray:none;stroke-dashoffset:0;stroke-opacity:1;visibility:visible;display:inline;overflow:visible;enable-background:accumulate" id="path6827" d="M 65,98.453125 A 3.9375,3.703125 0 1 1 57.125,98.453125 A 3.9375,3.703125 0 1 1 65,98.453125 z" transform="matrix(0.5763041,-0.3100056,0,0.7708626,-442.50307,-3.2141242)"/><path id="path6831" d="M -412.625,69 L -412.625,32.375 L -439.90625,19.15625 L -440,47.0625 L -412.625,69 z" style="fill:#fbe100;fill-opacity:1;fill-rule:evenodd;stroke:none;stroke-width:1px;stroke-linecap:butt;stroke-linejoin:miter;stroke-opacity:1"/><path style="fill:url(#linearGradient6977);fill-opacity:1;fill-rule:evenodd;stroke:none;stroke-width:1px;stroke-linecap:butt;stroke-linejoin:miter;marker:none;marker-start:none;marker-mid:none;marker-end:none;stroke-miterlimit:4;stroke-dasharray:none;stroke-dashoffset:0;stroke-opacity:1;visibility:visible;display:inline;overflow:visible;enable-background:accumulate" id="path6833" d="M 65,98.453125 A 3.9375,3.703125 0 1 1 57.125,98.453125 A 3.9375,3.703125 0 1 1 65,98.453125 z" transform="matrix(-1.0634921,-0.5720738,0,1.4225238,-354.99802,-66.994661)"/><path id="path6837" d="M 65,98.453125 A 3.9375,3.703125 0 1 1 57.125,98.453125 A 3.9375,3.703125 0 1 1 65,98.453125 z" transform="matrix(-0.7502998,-0.4036014,0,1.0035988,-388.85552,-46.85003)" style="fill:url(#linearGradient6979);fill-opacity:1;fill-rule:evenodd;stroke:none;stroke-width:1px;stroke-linecap:butt;stroke-linejoin:miter;marker:none;marker-start:none;marker-mid:none;marker-end:none;stroke-miterlimit:4;stroke-dasharray:none;stroke-dashoffset:0;stroke-opacity:1;visibility:visible;display:inline;overflow:visible;enable-background:accumulate"/><path style="fill:url(#linearGradient6981);fill-opacity:1;fill-rule:evenodd;stroke:none;stroke-width:1px;stroke-linecap:butt;stroke-linejoin:miter;marker:none;marker-start:none;marker-mid:none;marker-end:none;stroke-miterlimit:4;stroke-dasharray:none;stroke-dashoffset:0;stroke-opacity:1;visibility:visible;display:inline;overflow:visible;enable-background:accumulate" id="path6841" d="M 65,98.453125 A 3.9375,3.703125 0 1 1 57.125,98.453125 A 3.9375,3.703125 0 1 1 65,98.453125 z" transform="matrix(-0.5378497,-0.2893202,0,0.719426,-399.78978,-12.995326)"/><path id="path6845" d="M 65,98.453125 A 3.9375,3.703125 0 1 1 57.125,98.453125 A 3.9375,3.703125 0 1 1 65,98.453125 z" transform="matrix(-0.5378497,-0.2893202,0,0.719426,-384.53978,7.004674)" style="fill:url(#linearGradient6983);fill-opacity:1;fill-rule:evenodd;stroke:none;stroke-width:1px;stroke-linecap:butt;stroke-linejoin:miter;marker:none;marker-start:none;marker-mid:none;marker-end:none;stroke-miterlimit:4;stroke-dasharray:none;stroke-dashoffset:0;stroke-opacity:1;visibility:visible;display:inline;overflow:visible;enable-background:accumulate"/><path id="path6853" d="M 65,98.453125 A 3.9375,3.703125 0 1 1 57.125,98.453125 A 3.9375,3.703125 0 1 1 65,98.453125 z" transform="matrix(0.297911,-0.1602523,0,0.3984848,-414.72486,14.178324)" style="fill:url(#linearGradient6985);fill-opacity:1;fill-rule:evenodd;stroke:none;stroke-width:1px;stroke-linecap:butt;stroke-linejoin:miter;marker:none;marker-start:none;marker-mid:none;marker-end:none;stroke-miterlimit:4;stroke-dasharray:none;stroke-dashoffset:0;stroke-opacity:1;visibility:visible;display:inline;overflow:visible;enable-background:accumulate"/></g></g></svg>